<mxfile host="app.diagrams.net" modified="2024-05-06T14:28:19.820Z" agent="Mozilla/5.0 (Windows NT 10.0; Win64; x64) AppleWebKit/537.36 (KHTML, like Gecko) Chrome/122.0.0.0 Safari/537.36" etag="E-h6vJaalUemeEHxic0I" version="24.2.7" type="github">
  <diagram id="prtHgNgQTEPvFCAcTncT" name="Page-1">
    <mxGraphModel dx="1744" dy="1036" grid="1" gridSize="10" guides="1" tooltips="1" connect="1" arrows="1" fold="1" page="1" pageScale="1" pageWidth="827" pageHeight="1169" math="0" shadow="0">
      <root>
        <mxCell id="0" />
        <mxCell id="1" parent="0" />
        <mxCell id="dNxyNK7c78bLwvsdeMH5-19" value="系统架构" style="swimlane;html=1;childLayout=stackLayout;resizeParent=1;resizeParentMax=0;horizontal=0;startSize=20;horizontalStack=0;" parent="1" vertex="1">
          <mxGeometry x="290" y="130" width="880" height="895" as="geometry">
            <mxRectangle x="120" y="120" width="40" height="60" as="alternateBounds" />
          </mxGeometry>
        </mxCell>
        <mxCell id="dNxyNK7c78bLwvsdeMH5-20" value="客户端" style="swimlane;html=1;startSize=20;horizontal=0;" parent="dNxyNK7c78bLwvsdeMH5-19" vertex="1">
          <mxGeometry x="20" width="860" height="95" as="geometry" />
        </mxCell>
        <mxCell id="dNxyNK7c78bLwvsdeMH5-24" value="Web浏览器" style="rounded=0;whiteSpace=wrap;html=1;fontFamily=Helvetica;fontSize=12;fontColor=#000000;align=center;" parent="dNxyNK7c78bLwvsdeMH5-20" vertex="1">
          <mxGeometry x="214" y="17.5" width="80" height="60" as="geometry" />
        </mxCell>
        <mxCell id="dNxyNK7c78bLwvsdeMH5-30" value="其他系统" style="rounded=0;whiteSpace=wrap;html=1;fontFamily=Helvetica;fontSize=12;fontColor=#000000;align=center;" parent="dNxyNK7c78bLwvsdeMH5-20" vertex="1">
          <mxGeometry x="600" y="17.5" width="80" height="60" as="geometry" />
        </mxCell>
        <mxCell id="OXVK6N7dL4cA4dyh83I7-69" value="权限层" style="swimlane;html=1;startSize=20;horizontal=0;" parent="dNxyNK7c78bLwvsdeMH5-19" vertex="1">
          <mxGeometry x="20" y="95" width="860" height="130" as="geometry" />
        </mxCell>
        <mxCell id="OXVK6N7dL4cA4dyh83I7-86" value="" style="rounded=0;whiteSpace=wrap;html=1;fontFamily=Helvetica;fontSize=12;fontColor=#000000;align=center;" parent="OXVK6N7dL4cA4dyh83I7-69" vertex="1">
          <mxGeometry x="340" y="15" width="190" height="100" as="geometry" />
        </mxCell>
        <mxCell id="OXVK6N7dL4cA4dyh83I7-87" value="用户权限管理" style="text;html=1;strokeColor=none;fillColor=none;align=center;verticalAlign=middle;whiteSpace=wrap;rounded=0;" parent="OXVK6N7dL4cA4dyh83I7-69" vertex="1">
          <mxGeometry x="370" y="15" width="130" height="30" as="geometry" />
        </mxCell>
        <mxCell id="gIh5Fo65XQ78Bha1B1qZ-51" value="用户鉴权" style="rounded=1;whiteSpace=wrap;html=1;" parent="OXVK6N7dL4cA4dyh83I7-69" vertex="1">
          <mxGeometry x="397.5" y="55" width="75" height="30" as="geometry" />
        </mxCell>
        <mxCell id="dNxyNK7c78bLwvsdeMH5-21" value="接口层" style="swimlane;html=1;startSize=20;horizontal=0;" parent="dNxyNK7c78bLwvsdeMH5-19" vertex="1">
          <mxGeometry x="20" y="225" width="860" height="120" as="geometry" />
        </mxCell>
        <mxCell id="OXVK6N7dL4cA4dyh83I7-6" value="" style="rounded=0;whiteSpace=wrap;html=1;fontFamily=Helvetica;fontSize=12;fontColor=#000000;align=center;" parent="dNxyNK7c78bLwvsdeMH5-21" vertex="1">
          <mxGeometry x="630" y="7.5" width="180" height="105" as="geometry" />
        </mxCell>
        <mxCell id="OXVK6N7dL4cA4dyh83I7-10" value="" style="rounded=0;whiteSpace=wrap;html=1;fontFamily=Helvetica;fontSize=12;fontColor=#000000;align=center;" parent="dNxyNK7c78bLwvsdeMH5-21" vertex="1">
          <mxGeometry x="340" y="7.5" width="190" height="105" as="geometry" />
        </mxCell>
        <mxCell id="OXVK6N7dL4cA4dyh83I7-58" value="图计算接口" style="rounded=1;whiteSpace=wrap;html=1;" parent="dNxyNK7c78bLwvsdeMH5-21" vertex="1">
          <mxGeometry x="350" y="72.5" width="75" height="30" as="geometry" />
        </mxCell>
        <mxCell id="OXVK6N7dL4cA4dyh83I7-59" value="图查询接口" style="rounded=1;whiteSpace=wrap;html=1;" parent="dNxyNK7c78bLwvsdeMH5-21" vertex="1">
          <mxGeometry x="450" y="72.5" width="70" height="30" as="geometry" />
        </mxCell>
        <mxCell id="OXVK6N7dL4cA4dyh83I7-60" value="图分析接口" style="text;html=1;strokeColor=none;fillColor=none;align=center;verticalAlign=middle;whiteSpace=wrap;rounded=0;" parent="dNxyNK7c78bLwvsdeMH5-21" vertex="1">
          <mxGeometry x="400" y="7.5" width="80" height="30" as="geometry" />
        </mxCell>
        <mxCell id="OXVK6N7dL4cA4dyh83I7-106" value="图存储接口" style="text;html=1;strokeColor=none;fillColor=none;align=center;verticalAlign=middle;whiteSpace=wrap;rounded=0;" parent="dNxyNK7c78bLwvsdeMH5-21" vertex="1">
          <mxGeometry x="680" y="7.5" width="80" height="30" as="geometry" />
        </mxCell>
        <mxCell id="OXVK6N7dL4cA4dyh83I7-107" value="元数据管理" style="rounded=1;whiteSpace=wrap;html=1;" parent="dNxyNK7c78bLwvsdeMH5-21" vertex="1">
          <mxGeometry x="641.5" y="72.5" width="75" height="30" as="geometry" />
        </mxCell>
        <mxCell id="OXVK6N7dL4cA4dyh83I7-108" value="图数据管理" style="rounded=1;whiteSpace=wrap;html=1;" parent="dNxyNK7c78bLwvsdeMH5-21" vertex="1">
          <mxGeometry x="728.5" y="72.5" width="70" height="30" as="geometry" />
        </mxCell>
        <mxCell id="gIh5Fo65XQ78Bha1B1qZ-2" value="" style="rounded=0;whiteSpace=wrap;html=1;fontFamily=Helvetica;fontSize=12;fontColor=#000000;align=center;" parent="dNxyNK7c78bLwvsdeMH5-21" vertex="1">
          <mxGeometry x="70" y="7.5" width="180" height="105" as="geometry" />
        </mxCell>
        <mxCell id="gIh5Fo65XQ78Bha1B1qZ-3" value="用户权限管理接口" style="text;html=1;strokeColor=none;fillColor=none;align=center;verticalAlign=middle;whiteSpace=wrap;rounded=0;" parent="dNxyNK7c78bLwvsdeMH5-21" vertex="1">
          <mxGeometry x="120" y="15" width="80" height="30" as="geometry" />
        </mxCell>
        <mxCell id="gIh5Fo65XQ78Bha1B1qZ-4" value="用户管理" style="rounded=1;whiteSpace=wrap;html=1;" parent="dNxyNK7c78bLwvsdeMH5-21" vertex="1">
          <mxGeometry x="80" y="72.5" width="75" height="30" as="geometry" />
        </mxCell>
        <mxCell id="gIh5Fo65XQ78Bha1B1qZ-5" value="权限管理" style="rounded=1;whiteSpace=wrap;html=1;" parent="dNxyNK7c78bLwvsdeMH5-21" vertex="1">
          <mxGeometry x="170" y="72.5" width="70" height="30" as="geometry" />
        </mxCell>
        <mxCell id="gIh5Fo65XQ78Bha1B1qZ-38" value="图数据批量导入" style="rounded=1;whiteSpace=wrap;html=1;" parent="dNxyNK7c78bLwvsdeMH5-21" vertex="1">
          <mxGeometry x="675" y="37.5" width="90" height="30" as="geometry" />
        </mxCell>
        <mxCell id="gIh5Fo65XQ78Bha1B1qZ-41" value="图分析任务管理" style="rounded=1;whiteSpace=wrap;html=1;" parent="dNxyNK7c78bLwvsdeMH5-21" vertex="1">
          <mxGeometry x="391.88" y="37.5" width="96.25" height="30" as="geometry" />
        </mxCell>
        <mxCell id="OXVK6N7dL4cA4dyh83I7-91" value="缓存层" style="swimlane;html=1;startSize=20;horizontal=0;" parent="dNxyNK7c78bLwvsdeMH5-19" vertex="1">
          <mxGeometry x="20" y="345" width="860" height="140" as="geometry" />
        </mxCell>
        <mxCell id="OXVK6N7dL4cA4dyh83I7-95" value="Redis" style="shape=cylinder3;whiteSpace=wrap;html=1;boundedLbl=1;backgroundOutline=1;size=15;" parent="OXVK6N7dL4cA4dyh83I7-91" vertex="1">
          <mxGeometry x="70" y="35" width="630" height="85" as="geometry" />
        </mxCell>
        <mxCell id="OXVK6N7dL4cA4dyh83I7-73" style="edgeStyle=orthogonalEdgeStyle;rounded=1;orthogonalLoop=1;jettySize=auto;html=1;exitX=0.5;exitY=1;exitDx=0;exitDy=0;entryX=0.5;entryY=0;entryDx=0;entryDy=0;entryPerimeter=0;curved=0;" parent="dNxyNK7c78bLwvsdeMH5-19" source="OXVK6N7dL4cA4dyh83I7-52" target="OXVK6N7dL4cA4dyh83I7-68" edge="1">
          <mxGeometry relative="1" as="geometry" />
        </mxCell>
        <mxCell id="dNxyNK7c78bLwvsdeMH5-22" value="服务层" style="swimlane;html=1;startSize=20;horizontal=0;" parent="dNxyNK7c78bLwvsdeMH5-19" vertex="1">
          <mxGeometry x="20" y="485" width="860" height="270" as="geometry" />
        </mxCell>
        <mxCell id="gIh5Fo65XQ78Bha1B1qZ-12" value="" style="rounded=0;whiteSpace=wrap;html=1;" parent="dNxyNK7c78bLwvsdeMH5-22" vertex="1">
          <mxGeometry x="210" y="16.25" width="340" height="237.5" as="geometry" />
        </mxCell>
        <mxCell id="OXVK6N7dL4cA4dyh83I7-45" value="" style="rounded=0;whiteSpace=wrap;html=1;fontFamily=Helvetica;fontSize=12;fontColor=#000000;align=center;" parent="dNxyNK7c78bLwvsdeMH5-22" vertex="1">
          <mxGeometry x="220" y="133.75" width="150" height="90" as="geometry" />
        </mxCell>
        <mxCell id="OXVK6N7dL4cA4dyh83I7-46" value="图计算算法实现" style="rounded=1;whiteSpace=wrap;html=1;" parent="dNxyNK7c78bLwvsdeMH5-22" vertex="1">
          <mxGeometry x="245" y="183.75" width="100" height="30" as="geometry" />
        </mxCell>
        <mxCell id="OXVK6N7dL4cA4dyh83I7-50" value="图计算实现Spark Graph" style="text;html=1;strokeColor=none;fillColor=none;align=center;verticalAlign=middle;whiteSpace=wrap;rounded=0;" parent="dNxyNK7c78bLwvsdeMH5-22" vertex="1">
          <mxGeometry x="255" y="143.75" width="80" height="30" as="geometry" />
        </mxCell>
        <mxCell id="OXVK6N7dL4cA4dyh83I7-52" value="" style="rounded=0;whiteSpace=wrap;html=1;fontFamily=Helvetica;fontSize=12;fontColor=#000000;align=center;" parent="dNxyNK7c78bLwvsdeMH5-22" vertex="1">
          <mxGeometry x="390" y="133.75" width="150" height="110" as="geometry" />
        </mxCell>
        <mxCell id="OXVK6N7dL4cA4dyh83I7-57" value="图查询实现" style="text;html=1;strokeColor=none;fillColor=none;align=center;verticalAlign=middle;whiteSpace=wrap;rounded=0;" parent="dNxyNK7c78bLwvsdeMH5-22" vertex="1">
          <mxGeometry x="425" y="133.75" width="80" height="30" as="geometry" />
        </mxCell>
        <mxCell id="OXVK6N7dL4cA4dyh83I7-63" value="逻辑解析" style="rounded=1;whiteSpace=wrap;html=1;" parent="dNxyNK7c78bLwvsdeMH5-22" vertex="1">
          <mxGeometry x="415" y="163.75" width="100" height="30" as="geometry" />
        </mxCell>
        <mxCell id="OXVK6N7dL4cA4dyh83I7-64" value="查询语句生成" style="rounded=1;whiteSpace=wrap;html=1;" parent="dNxyNK7c78bLwvsdeMH5-22" vertex="1">
          <mxGeometry x="415" y="203.75" width="100" height="30" as="geometry" />
        </mxCell>
        <mxCell id="gIh5Fo65XQ78Bha1B1qZ-14" value="" style="rounded=0;whiteSpace=wrap;html=1;fontFamily=Helvetica;fontSize=12;fontColor=#000000;align=center;" parent="dNxyNK7c78bLwvsdeMH5-22" vertex="1">
          <mxGeometry x="220" y="56.25" width="110" height="70" as="geometry" />
        </mxCell>
        <mxCell id="gIh5Fo65XQ78Bha1B1qZ-15" value="图分析任务管理" style="text;html=1;strokeColor=none;fillColor=none;align=center;verticalAlign=middle;whiteSpace=wrap;rounded=0;" parent="dNxyNK7c78bLwvsdeMH5-22" vertex="1">
          <mxGeometry x="230" y="56.25" width="92.5" height="30" as="geometry" />
        </mxCell>
        <mxCell id="gIh5Fo65XQ78Bha1B1qZ-16" value="任务管理" style="rounded=1;whiteSpace=wrap;html=1;" parent="dNxyNK7c78bLwvsdeMH5-22" vertex="1">
          <mxGeometry x="230" y="86.25" width="90" height="30" as="geometry" />
        </mxCell>
        <mxCell id="gIh5Fo65XQ78Bha1B1qZ-42" value="" style="rounded=0;whiteSpace=wrap;html=1;fontFamily=Helvetica;fontSize=12;fontColor=#000000;align=center;" parent="dNxyNK7c78bLwvsdeMH5-22" vertex="1">
          <mxGeometry x="340" y="56.25" width="200" height="70" as="geometry" />
        </mxCell>
        <mxCell id="gIh5Fo65XQ78Bha1B1qZ-21" value="图分析实现" style="text;html=1;strokeColor=none;fillColor=none;align=center;verticalAlign=middle;whiteSpace=wrap;rounded=0;" parent="dNxyNK7c78bLwvsdeMH5-22" vertex="1">
          <mxGeometry x="342.5" y="16.25" width="80" height="30" as="geometry" />
        </mxCell>
        <mxCell id="gIh5Fo65XQ78Bha1B1qZ-22" value="" style="rounded=0;whiteSpace=wrap;html=1;fontFamily=Helvetica;fontSize=12;fontColor=#000000;align=center;" parent="dNxyNK7c78bLwvsdeMH5-22" vertex="1">
          <mxGeometry x="635" y="16.25" width="170" height="200" as="geometry" />
        </mxCell>
        <mxCell id="gIh5Fo65XQ78Bha1B1qZ-23" value="图存储实现" style="text;html=1;strokeColor=none;fillColor=none;align=center;verticalAlign=middle;whiteSpace=wrap;rounded=0;" parent="dNxyNK7c78bLwvsdeMH5-22" vertex="1">
          <mxGeometry x="680" y="26.25" width="80" height="30" as="geometry" />
        </mxCell>
        <mxCell id="gIh5Fo65XQ78Bha1B1qZ-24" value="HugeGraph&amp;nbsp;BulkLoader" style="rounded=1;whiteSpace=wrap;html=1;" parent="dNxyNK7c78bLwvsdeMH5-22" vertex="1">
          <mxGeometry x="645" y="81.25" width="150" height="30" as="geometry" />
        </mxCell>
        <mxCell id="gIh5Fo65XQ78Bha1B1qZ-25" value="HugeGraph图数据管理" style="rounded=1;whiteSpace=wrap;html=1;" parent="dNxyNK7c78bLwvsdeMH5-22" vertex="1">
          <mxGeometry x="645" y="173.75" width="150" height="30" as="geometry" />
        </mxCell>
        <mxCell id="gIh5Fo65XQ78Bha1B1qZ-39" value="HugeGraph元数据管理" style="rounded=1;whiteSpace=wrap;html=1;" parent="dNxyNK7c78bLwvsdeMH5-22" vertex="1">
          <mxGeometry x="645" y="126.25" width="150" height="30" as="geometry" />
        </mxCell>
        <mxCell id="gIh5Fo65XQ78Bha1B1qZ-17" value="任务调度" style="rounded=1;whiteSpace=wrap;html=1;" parent="dNxyNK7c78bLwvsdeMH5-22" vertex="1">
          <mxGeometry x="350" y="86.25" width="86.25" height="30" as="geometry" />
        </mxCell>
        <mxCell id="gIh5Fo65XQ78Bha1B1qZ-18" value="任务执行" style="rounded=1;whiteSpace=wrap;html=1;" parent="dNxyNK7c78bLwvsdeMH5-22" vertex="1">
          <mxGeometry x="450" y="86.25" width="80" height="30" as="geometry" />
        </mxCell>
        <mxCell id="gIh5Fo65XQ78Bha1B1qZ-44" value="图分析任务调度执行" style="text;html=1;strokeColor=none;fillColor=none;align=center;verticalAlign=middle;whiteSpace=wrap;rounded=0;" parent="dNxyNK7c78bLwvsdeMH5-22" vertex="1">
          <mxGeometry x="381.88" y="56.25" width="116.25" height="30" as="geometry" />
        </mxCell>
        <mxCell id="k-mwg9a5luVFQ9rmK_YQ-1" value="" style="rounded=0;whiteSpace=wrap;html=1;fontFamily=Helvetica;fontSize=12;fontColor=#000000;align=center;" vertex="1" parent="dNxyNK7c78bLwvsdeMH5-22">
          <mxGeometry x="50" y="16.25" width="140" height="200" as="geometry" />
        </mxCell>
        <mxCell id="k-mwg9a5luVFQ9rmK_YQ-2" value="用户权限管理实现" style="text;html=1;strokeColor=none;fillColor=none;align=center;verticalAlign=middle;whiteSpace=wrap;rounded=0;" vertex="1" parent="dNxyNK7c78bLwvsdeMH5-22">
          <mxGeometry x="80" y="35" width="80" height="30" as="geometry" />
        </mxCell>
        <mxCell id="k-mwg9a5luVFQ9rmK_YQ-3" value="用户管理" style="rounded=1;whiteSpace=wrap;html=1;" vertex="1" parent="dNxyNK7c78bLwvsdeMH5-22">
          <mxGeometry x="82.5" y="86.25" width="75" height="30" as="geometry" />
        </mxCell>
        <mxCell id="k-mwg9a5luVFQ9rmK_YQ-4" value="权限管理" style="rounded=1;whiteSpace=wrap;html=1;" vertex="1" parent="dNxyNK7c78bLwvsdeMH5-22">
          <mxGeometry x="85" y="156.25" width="70" height="30" as="geometry" />
        </mxCell>
        <mxCell id="OXVK6N7dL4cA4dyh83I7-83" style="edgeStyle=orthogonalEdgeStyle;rounded=1;orthogonalLoop=1;jettySize=auto;html=1;exitX=0.5;exitY=1;exitDx=0;exitDy=0;curved=0;" parent="dNxyNK7c78bLwvsdeMH5-19" source="OXVK6N7dL4cA4dyh83I7-45" target="OXVK6N7dL4cA4dyh83I7-81" edge="1">
          <mxGeometry relative="1" as="geometry" />
        </mxCell>
        <mxCell id="gIh5Fo65XQ78Bha1B1qZ-27" style="edgeStyle=orthogonalEdgeStyle;rounded=0;orthogonalLoop=1;jettySize=auto;html=1;exitX=0.5;exitY=1;exitDx=0;exitDy=0;entryX=0.5;entryY=0;entryDx=0;entryDy=0;" parent="dNxyNK7c78bLwvsdeMH5-19" source="OXVK6N7dL4cA4dyh83I7-6" target="gIh5Fo65XQ78Bha1B1qZ-22" edge="1">
          <mxGeometry relative="1" as="geometry" />
        </mxCell>
        <mxCell id="gIh5Fo65XQ78Bha1B1qZ-28" style="edgeStyle=orthogonalEdgeStyle;rounded=0;orthogonalLoop=1;jettySize=auto;html=1;exitX=0.5;exitY=1;exitDx=0;exitDy=0;entryX=0.5;entryY=0;entryDx=0;entryDy=0;entryPerimeter=0;" parent="dNxyNK7c78bLwvsdeMH5-19" source="gIh5Fo65XQ78Bha1B1qZ-22" target="OXVK6N7dL4cA4dyh83I7-68" edge="1">
          <mxGeometry relative="1" as="geometry" />
        </mxCell>
        <mxCell id="OXVK6N7dL4cA4dyh83I7-67" value="数据层" style="swimlane;html=1;startSize=20;horizontal=0;" parent="dNxyNK7c78bLwvsdeMH5-19" vertex="1">
          <mxGeometry x="20" y="755" width="860" height="140" as="geometry" />
        </mxCell>
        <mxCell id="OXVK6N7dL4cA4dyh83I7-68" value="图数据库HugeGraph" style="shape=cylinder3;whiteSpace=wrap;html=1;boundedLbl=1;backgroundOutline=1;size=15;" parent="OXVK6N7dL4cA4dyh83I7-67" vertex="1">
          <mxGeometry x="660" y="40" width="120" height="80" as="geometry" />
        </mxCell>
        <mxCell id="OXVK6N7dL4cA4dyh83I7-74" value="关系数据库MySQL" style="shape=cylinder3;whiteSpace=wrap;html=1;boundedLbl=1;backgroundOutline=1;size=15;" parent="OXVK6N7dL4cA4dyh83I7-67" vertex="1">
          <mxGeometry x="60" y="40" width="120" height="80" as="geometry" />
        </mxCell>
        <mxCell id="OXVK6N7dL4cA4dyh83I7-81" value="分布式文件系统HDFS" style="shape=cylinder3;whiteSpace=wrap;html=1;boundedLbl=1;backgroundOutline=1;size=15;" parent="OXVK6N7dL4cA4dyh83I7-67" vertex="1">
          <mxGeometry x="235" y="40" width="120" height="80" as="geometry" />
        </mxCell>
        <mxCell id="k-mwg9a5luVFQ9rmK_YQ-5" style="edgeStyle=orthogonalEdgeStyle;rounded=0;orthogonalLoop=1;jettySize=auto;html=1;exitX=0.5;exitY=1;exitDx=0;exitDy=0;dashed=1;" edge="1" parent="dNxyNK7c78bLwvsdeMH5-19" source="gIh5Fo65XQ78Bha1B1qZ-2" target="k-mwg9a5luVFQ9rmK_YQ-1">
          <mxGeometry relative="1" as="geometry">
            <Array as="points">
              <mxPoint x="140" y="338" />
            </Array>
          </mxGeometry>
        </mxCell>
        <mxCell id="k-mwg9a5luVFQ9rmK_YQ-6" style="edgeStyle=orthogonalEdgeStyle;rounded=0;orthogonalLoop=1;jettySize=auto;html=1;exitX=0.5;exitY=1;exitDx=0;exitDy=0;entryX=0.5;entryY=0;entryDx=0;entryDy=0;dashed=1;" edge="1" parent="dNxyNK7c78bLwvsdeMH5-19" source="OXVK6N7dL4cA4dyh83I7-10" target="gIh5Fo65XQ78Bha1B1qZ-21">
          <mxGeometry relative="1" as="geometry">
            <Array as="points">
              <mxPoint x="403" y="338" />
              <mxPoint x="403" y="410" />
            </Array>
          </mxGeometry>
        </mxCell>
        <mxCell id="k-mwg9a5luVFQ9rmK_YQ-7" style="edgeStyle=orthogonalEdgeStyle;rounded=0;orthogonalLoop=1;jettySize=auto;html=1;exitX=0.5;exitY=1;exitDx=0;exitDy=0;entryX=0.5;entryY=0;entryDx=0;entryDy=0;entryPerimeter=0;" edge="1" parent="dNxyNK7c78bLwvsdeMH5-19" source="k-mwg9a5luVFQ9rmK_YQ-1" target="OXVK6N7dL4cA4dyh83I7-74">
          <mxGeometry relative="1" as="geometry" />
        </mxCell>
      </root>
    </mxGraphModel>
  </diagram>
</mxfile>
